<svg width="25" height="24" viewBox="0 0 25 24" fill="none" xmlns="http://www.w3.org/2000/svg">
<path d="M12.7359 15C14.8046 15 16.4816 13.3211 16.4816 11.25C16.4816 9.17893 14.8046 7.5 12.7359 7.5C10.6672 7.5 8.99023 9.17893 8.99023 11.25C8.99023 13.3211 10.6672 15 12.7359 15Z" stroke="#FF9F0D" stroke-width="1.5" stroke-miterlimit="10"/>
<path d="M6.72461 18.6913C7.28891 17.5806 8.14921 16.6478 9.21029 15.9963C10.2714 15.3448 11.4918 15 12.7365 15C13.9813 15 15.2017 15.3448 16.2628 15.9963C17.3239 16.6478 18.1842 17.5806 18.7485 18.6913" stroke="#FF9F0D" stroke-width="1.5" stroke-linecap="round" stroke-linejoin="round"/>
<path d="M17.2314 5.25H21.7263" stroke="#FF9F0D" stroke-width="1.5" stroke-linecap="round" stroke-linejoin="round"/>
<path d="M19.4785 3V7.5" stroke="#FF9F0D" stroke-width="1.5" stroke-linecap="round" stroke-linejoin="round"/>
<path d="M21.6147 10.5804C21.9122 12.456 21.609 14.3776 20.7484 16.07C19.8878 17.7623 18.5141 19.1384 16.8242 20.0009C15.1342 20.8635 13.2149 21.1681 11.3414 20.8713C9.46783 20.5744 7.73629 19.6912 6.39501 18.3484C5.05373 17.0056 4.17159 15.2721 3.87506 13.3964C3.57854 11.5207 3.88287 9.59917 4.74441 7.90731C5.60594 6.21546 6.98045 4.84015 8.67086 3.97858C10.3613 3.11701 12.2808 2.81342 14.1541 3.11134" stroke="#FF9F0D" stroke-width="1.5" stroke-linecap="round" stroke-linejoin="round"/>
</svg>
